<?xml version="1.0" encoding="utf-8"?>
<!-- Generator: Adobe Illustrator 27.8.1, SVG Export Plug-In . SVG Version: 6.00 Build 0)  -->
<svg version="1.1" id="_x32_" xmlns="http://www.w3.org/2000/svg" xmlns:xlink="http://www.w3.org/1999/xlink" x="0px" y="0px"
	 viewBox="0 0 764.3 800" style="enable-background:new 0 0 764.3 800;" xml:space="preserve">
<style type="text/css">
	.st0{fill:#FFFFFF;}
	.st1{fill:#FF00F7;}
</style>
<path class="st0" d="M654.5,127.6C586.4,57.1,487.1,16.7,382.1,16.7c-105,0-204.3,40.4-272.4,110.9c-63.6,65.9-96.9,154-93.6,248.1
	L26,501.3c9,126.9,82.7,140.6,113.9,140.6c11.3,0,23.3-1.6,35.4-4.8c1.6,11.9,1.5,32.7,1.4,49l-0.1,22.5
	c-0.2,16.4-0.5,41.2,16.8,58.8c7.2,7.3,20.3,16,41.9,16h293.5c21.6,0,34.7-8.7,41.9-16c17.3-17.6,17-42.4,16.8-58.8l-0.1-22.5
	c-0.1-16.2-0.3-37.1,1.4-49c12.2,3.2,24.1,4.8,35.4,4.8c31.2,0,104.9-13.7,113.9-140.4l9.8-124.5l0.1-1.3
	C751.4,281.5,718.2,193.5,654.5,127.6z"/>
<g>
	<path d="M666.4,115.8C595.3,42.2,491.7,0,382.1,0C272.6,0,169,42.2,97.9,115.7C31.5,184.5-3.2,276.4,0.2,374.6l10.3,131
		C20,638.1,96.9,652.4,129.5,652.4c11.8,0,24.3-1.7,36.9-5c1.7,12.4,1.6,34.2,1.4,51.1l-0.1,23.5c-0.2,17.1-0.6,43,17.6,61.3
		c7.5,7.6,21.2,16.7,43.8,16.7h306.3c22.6,0,36.2-9.1,43.8-16.7c18.1-18.4,17.8-44.2,17.5-61.3l-0.2-23.5
		c-0.1-16.9-0.3-38.7,1.5-51.1c12.8,3.3,25.2,5,36.9,5c32.6,0,109.5-14.3,118.9-146.5L764,376l0.1-1.4
		C767.5,276.4,732.8,184.5,666.4,115.8z M143.4,159.7c59.2-61.3,146.2-96.4,238.7-96.4c77.9,0,151.8,25,208.5,69.4L64.3,382.8
		l-0.9-11.1C60.8,291.1,89.2,215.8,143.4,159.7z M700.8,371.7l-10.2,129.4c-4.2,58.4-23,87.9-55.8,87.9c-7.6,0-16-1.4-25.5-4.2
		c-22.5-6.5-42-2.2-55.8,11.7c-21,21.1-20.7,55.2-20.4,102.3l0.1,23.9c0,3.9,0.1,9.7-0.2,13.9h-66.8v-78.2h-50.6v78.2h-67.1v-78.2
		H298v78.2h-66.8c-0.3-4.2-0.2-10-0.2-13.9l0.1-23.9c0.3-47.1,0.6-81.2-20.4-102.3C197,582.8,178,578.3,154.6,585
		c-9.1,2.7-17.6,4.1-25.2,4.1c-32.9,0-51.6-29.6-55.8-88.2l-5.1-64.1l48.3-23c4.6,34.8,23.9,106.2,104,99.8
		C303.7,507,338.4,410,332.5,311.4l297.7-141.5C678.3,224.8,703.3,295.9,700.8,371.7z"/>
	<path d="M382.2,483.8c-15.2,0-48.6,72.9-54.7,85.1c-6,12.2,6.1,30.4,24.3,24.3c18.2-6,30.4-21.3,30.4-21.3s12.2,15.2,30.4,21.3
		c18.2,6.1,30.4-12.2,24.3-24.3C430.8,556.8,397.4,483.8,382.2,483.8z"/>
	<path class="st1" d="M610.7,364.6c-5-48.3-48.3-83.4-96.6-78.3c-48.3,5.1-83.3,48.3-78.3,96.6l6.5,46c5.1,48.3,48.3,83.4,96.6,78.3
		s83.3-48.3,78.3-96.6L610.7,364.6z"/>
</g>
</svg>
